<svg width="1038" height="373.99999999999994" xmlns="http://www.w3.org/2000/svg" t="1643878809919" class="icon" version="1.1" p-id="1973">
 <g>
  <title>Layer 1</title>
  <path d="m331.32634,324.61842c-0.31883,0.27328 -31.42707,25.14166 -94.37231,-1.73077c-74.4685,-31.7459 -131.53824,-0.77429 -133.90665,0.54656c-5.55667,3.09716 -7.56072,10.11132 -4.46356,15.66799c3.09716,5.55667 10.11132,7.56072 15.66799,4.46356c0.50101,-0.27328 49.46348,-26.82688 113.63847,0.54656c24.91393,10.61233 46.00195,14.2105 63.21852,14.2105c35.07079,0 53.79039,-14.98479 54.92906,-15.94127c4.91902,-4.05364 5.60222,-11.34107 1.50303,-16.21455c-4.05364,-4.91902 -11.29553,-5.60222 -16.21455,-1.54858zm-141.96838,-151.80642c-4.5091,-4.5091 -11.79654,-4.5091 -16.30564,0l-55.83999,55.83999c3.41599,-23.41089 29.01311,-69.9594 77.97558,-118.92186c29.14975,-29.14975 60.12136,-52.78837 87.22151,-66.54341c25.00502,-12.70747 40.80965,-13.70949 45.45539,-9.1093c11.34107,11.34107 -13.07184,70.05049 -75.65271,132.6769c-23.63862,23.63862 -48.46146,43.63353 -71.8268,57.88958c-5.42003,3.32489 -7.1508,10.43014 -3.8259,15.85018c3.32489,5.42003 10.43014,7.1508 15.85018,3.8259c24.91393,-15.21252 51.19424,-36.39164 76.10817,-61.30556c30.83497,-30.83497 55.97663,-63.90171 70.82478,-93.09701c21.45239,-42.22159 14.48378,-62.53532 4.87347,-72.19117c-9.61031,-9.61031 -29.96958,-16.57892 -72.19117,4.87347c-29.19529,14.84815 -62.26204,39.98981 -93.09701,70.82478c-54.20031,54.20031 -96.37635,121.56356 -82.12031,155.67787l-83.85107,83.80553c-4.5091,4.5091 -4.5091,11.79654 0,16.30564c2.23178,2.23178 5.1923,3.37044 8.15282,3.37044s5.92104,-1.13866 8.15282,-3.37044l160.09588,-160.09588c4.5091,-4.5091 4.5091,-11.79654 0,-16.30564l0,-0.00001z" p-id="1974" fill="#f04917" id="svg_1" stroke="null"/>
  <text fill="#000000" stroke-width="0" x="376.51053" y="308.96242" id="svg_2" font-size="250" font-family="'El Messiri'" text-anchor="start" xml:space="preserve" font-weight="bold" stroke="#000" transform="matrix(1.17107 0 0 1 -64.4102 0)">Cath</text>
 </g>

</svg>