<svg width="624" height="244" xmlns="http://www.w3.org/2000/svg" t="1643878809919" class="icon" version="1.1" p-id="1973">
 <g>
  <title>Layer 1</title>
  <path d="m218.21562,218.03879c-0.2123,0.18198 -20.92713,16.7417 -62.84204,-1.15251c-49.5882,-21.13943 -87.59065,-0.5156 -89.16776,0.36395c-3.70016,2.06238 -5.03464,6.73308 -2.97226,10.43323c2.06238,3.70016 6.73308,5.03464 10.43323,2.97226c0.33362,-0.18198 32.93748,-17.86388 75.67128,0.36395c16.59006,7.0667 30.63246,9.4627 42.09689,9.4627c23.35346,0 35.81875,-9.9783 36.57698,-10.61521c3.27555,-2.6993 3.73049,-7.55196 1.00086,-10.79719c-2.6993,-3.27555 -7.52163,-3.73049 -10.79719,-1.03119l0.00001,0.00001zm-94.53603,-101.08713c-3.00259,-3.00259 -7.85526,-3.00259 -10.85784,0l-37.18356,37.18356c2.27469,-15.58919 19.31968,-46.58561 51.92354,-79.18947c19.41067,-19.41067 40.03451,-35.15151 58.08036,-44.31092c16.65072,-8.46184 27.17494,-9.12908 30.26851,-6.06583c7.55196,7.55196 -8.70447,46.64627 -50.37675,88.34888c-15.74084,15.74084 -32.27024,29.05535 -47.8291,38.54838c-3.60917,2.21403 -4.76168,6.94538 -2.54765,10.55455c2.21403,3.60917 6.94538,4.76168 10.55455,2.54765c16.59006,-10.12994 34.08999,-24.23301 50.68005,-40.82306c20.53285,-20.53285 37.27455,-42.55183 47.16186,-61.99283c14.28504,-28.11514 9.64468,-41.64195 3.24522,-48.07174c-6.39946,-6.39946 -19.95659,-11.03982 -48.07174,3.24522c-19.441,9.88731 -41.45998,26.62901 -61.99283,47.16186c-36.09171,36.09171 -64.17653,80.94856 -54.6835,103.66511l-55.836,55.80568c-3.00259,3.00259 -3.00259,7.85526 0,10.85784c1.48613,1.48613 3.45753,2.24436 5.42892,2.24436s3.94279,-0.75823 5.42892,-2.24436l106.60704,-106.60704c3.00259,-3.00259 3.00259,-7.85526 0,-10.85784z" p-id="1974" fill="#f04917" id="svg_1" stroke="null"/>
  <text fill="#000000" x="396.98426" y="211.3443" id="svg_2" stroke-width="0" font-size="36" font-family="'Caveat'" text-anchor="start" xml:space="preserve" font-weight="normal" stroke="null" transform="matrix(5.75429 0 0 4.1817 -2021.88 -681.96)">Cath</text>
 </g>

</svg>